<?xml version="1.0" encoding="UTF-8" standalone="no"?>
<svg
   width="145.3555mm"
   height="91.286232mm"
   viewBox="0 0 145.3555 91.286232"
   version="1.1"
   id="svg5"
   inkscape:version="1.1.1 (3bf5ae0d25, 2021-09-20)"
   sodipodi:docname="logo2.svg"
   xmlns:inkscape="http://www.inkscape.org/namespaces/inkscape"
   xmlns:sodipodi="http://sodipodi.sourceforge.net/DTD/sodipodi-0.dtd"
   xmlns="http://www.w3.org/2000/svg"
   xmlns:svg="http://www.w3.org/2000/svg">
  <sodipodi:namedview
     id="namedview7"
     pagecolor="#ffffff"
     bordercolor="#666666"
     borderopacity="1.0"
     inkscape:pageshadow="2"
     inkscape:pageopacity="0.0"
     inkscape:pagecheckerboard="0"
     inkscape:document-units="mm"
     showgrid="false"
     inkscape:zoom="0.74118967"
     inkscape:cx="420.27029"
     inkscape:cy="397.33419"
     inkscape:window-width="1920"
     inkscape:window-height="1017"
     inkscape:window-x="-8"
     inkscape:window-y="-8"
     inkscape:window-maximized="1"
     inkscape:current-layer="layer1"
     width="209mm"
     fit-margin-top="1"
     fit-margin-left="1"
     fit-margin-right="1"
     fit-margin-bottom="1"
     lock-margins="true">
    <inkscape:grid
       type="xygrid"
       id="grid144252"
       originx="-6.5234193"
       originy="-5.352311" />
  </sodipodi:namedview>
  <defs
     id="defs2">
    <rect
       x="426.34161"
       y="581.49756"
       width="62.062386"
       height="63.411568"
       id="rect133153" />
    <rect
       x="429.03998"
       y="520.78436"
       width="244.202"
       height="134.91823"
       id="rect111459" />
    <rect
       x="495.1499"
       y="518.086"
       width="98.490311"
       height="141.66414"
       id="rect108197" />
    <rect
       x="380.46942"
       y="565.30737"
       width="308.96274"
       height="303.56601"
       id="rect58105" />
    <rect
       x="103.88704"
       y="210.47244"
       width="1729.6517"
       height="1501.6399"
       id="rect1815" />
  </defs>
  <g
     inkscape:label="Warstwa 1"
     inkscape:groupmode="layer"
     id="layer1"
     transform="translate(-6.5234191,-5.3523111)">
    <g
       aria-label="ID"
       transform="matrix(0.26458333,0,0,0.26458333,-31.05649,-73.536057)"
       id="text1813"
       style="font-weight:800;font-size:466.667px;line-height:1.25;font-family:'Open Sans';-inkscape-font-specification:'Open Sans Ultra-Bold';white-space:pre;shape-inside:url(#rect1815)" />
    <g
       aria-label="AR"
       transform="matrix(0.26458333,0,0,0.26458333,-2.4987971,-65.325721)"
       id="text111457"
       style="font-weight:bold;font-size:96px;line-height:1.25;-inkscape-font-specification:'sans-serif Bold';white-space:pre;shape-inside:url(#rect111459)">
      <path
         id="path428"
         sodipodi:type="inkscape:offset"
         inkscape:radius="0"
         inkscape:original="M 37.878906 270.9082 L 37.878906 604.04688 L 108.51758 604.04688 L 108.51758 270.9082 L 37.878906 270.9082 z M 192.37109 270.9082 L 192.37109 604.04688 L 286.70703 604.04688 C 324.9883 604.04687 357.72611 597.74329 384.91797 585.13477 C 412.10983 572.37434 432.84547 553.4616 447.125 528.39648 C 461.55643 503.17945 468.77148 471.81079 468.77148 434.28906 C 468.77148 398.59026 461.70769 368.66343 447.58008 344.50977 C 433.45246 320.2042 413.55167 301.89845 387.87891 289.59375 C 362.20615 277.13714 331.9002 270.9082 296.96094 270.9082 L 192.37109 270.9082 z M 263.00977 328.78711 L 300.60742 328.78711 C 321.26716 328.78711 338.58484 332.5842 352.56055 340.17969 C 366.68816 347.77518 377.32118 359.54751 384.46094 375.49805 C 391.75261 391.29667 395.39844 411.50193 395.39844 436.11133 C 395.39844 472.41777 386.96746 499.76148 370.10547 518.14258 C 353.39539 536.52366 327.79993 545.71484 293.31641 545.71484 L 263.00977 545.71484 L 263.00977 328.78711 z M 455.94531 538.57227 L 430.16406 608.36914 L 448.30469 608.36914 L 453.13281 594.25977 L 479.00781 594.25977 L 483.83594 608.36914 L 502.44531 608.36914 L 476.66406 538.57227 L 455.94531 538.57227 z M 512.47656 538.57227 L 512.47656 608.36914 L 530.38281 608.36914 L 530.38281 582.77539 L 538.67969 582.77539 L 557.71094 608.36914 L 579.69531 608.36914 L 556.39844 578.46289 C 560.83594 576.30664 564.24219 573.60352 566.61719 570.35352 C 569.02343 567.10352 570.22656 562.90039 570.22656 557.74414 C 570.22656 553.99414 569.44531 550.88477 567.88281 548.41602 C 566.35157 545.91602 564.27344 543.88477 561.64844 542.32227 C 559.05468 540.75977 556.27343 539.74414 553.30469 539.27539 C 550.33593 538.80664 546.78906 538.57227 542.66406 538.57227 L 512.47656 538.57227 z M 530.38281 551.41602 L 536.89844 551.41602 C 539.05468 551.41602 540.94531 551.47852 542.57031 551.60352 C 544.19531 551.69727 545.61718 551.99414 546.83594 552.49414 C 548.58594 553.21289 549.82032 554.19727 550.53906 555.44727 C 551.25782 556.69727 551.61719 558.19727 551.61719 559.94727 C 551.61719 561.91602 551.32032 563.49414 550.72656 564.68164 C 550.16406 565.83789 549.25781 566.90039 548.00781 567.86914 C 546.69531 568.86914 545.07031 569.50977 543.13281 569.79102 C 541.19531 570.07227 538.78906 570.21289 535.91406 570.21289 L 530.38281 570.21289 L 530.38281 551.41602 z M 466.07031 556.43164 L 474.64844 581.46289 L 457.49219 581.46289 L 466.07031 556.43164 z "
         d="M 37.878906,270.9082 V 604.04688 H 108.51758 V 270.9082 Z m 154.492184,0 v 333.13868 h 94.33594 c 38.28127,-10e-6 71.01908,-6.30359 98.21094,-18.91211 27.19186,-12.76043 47.9275,-31.67317 62.20703,-56.73829 14.43143,-25.21703 21.64648,-56.58569 21.64648,-94.10742 0,-35.6988 -7.06379,-65.62563 -21.1914,-89.77929 C 433.45246,320.2042 413.55167,301.89845 387.87891,289.59375 362.20615,277.13714 331.9002,270.9082 296.96094,270.9082 Z m 70.63868,57.87891 h 37.59765 c 20.65974,0 37.97742,3.79709 51.95313,11.39258 14.12761,7.59549 24.76063,19.36782 31.90039,35.31836 7.29167,15.79862 10.9375,36.00388 10.9375,60.61328 0,36.30644 -8.43098,63.65015 -25.29297,82.03125 -16.71008,18.38108 -42.30554,27.57226 -76.78906,27.57226 h -30.30664 z m 192.93554,209.78516 -25.78125,69.79687 h 18.14063 l 4.82812,-14.10937 h 25.875 l 4.82813,14.10937 h 18.60937 l -25.78125,-69.79687 z m 56.53125,0 v 69.79687 h 17.90625 v -25.59375 h 8.29688 l 19.03125,25.59375 h 21.98437 l -23.29687,-29.90625 c 4.4375,-2.15625 7.84375,-4.85937 10.21875,-8.10937 2.40624,-3.25 3.60937,-7.45313 3.60937,-12.60938 0,-3.75 -0.78125,-6.85937 -2.34375,-9.32812 -1.53124,-2.5 -3.60937,-4.53125 -6.23437,-6.09375 -2.59376,-1.5625 -5.37501,-2.57813 -8.34375,-3.04688 -2.96876,-0.46875 -6.51563,-0.70312 -10.64063,-0.70312 z m 17.90625,12.84375 h 6.51563 c 2.15624,0 4.04687,0.0625 5.67187,0.1875 1.625,0.0937 3.04687,0.39062 4.26563,0.89062 1.75,0.71875 2.98438,1.70313 3.70312,2.95313 0.71876,1.25 1.07813,2.75 1.07813,4.5 0,1.96875 -0.29687,3.54687 -0.89063,4.73437 -0.5625,1.15625 -1.46875,2.21875 -2.71875,3.1875 -1.3125,1 -2.9375,1.64063 -4.875,1.92188 -1.9375,0.28125 -4.34375,0.42187 -7.21875,0.42187 h -5.53125 z m -64.3125,5.01562 8.57813,25.03125 h -17.15625 z" />
    </g>
  </g>
</svg>
